<svg width="134" height="59" viewBox="0 0 134 59" fill="none" xmlns="http://www.w3.org/2000/svg">
<path d="M60.6231 31.22C60.7085 31.6893 60.9005 32.052 61.1991 32.308C61.5085 32.5533 61.9191 32.676 62.4311 32.676C63.0925 32.676 63.5725 32.404 63.8711 31.86C64.1698 31.3053 64.3191 30.3773 64.3191 29.076C64.0738 29.4173 63.7271 29.684 63.2791 29.876C62.8418 30.068 62.3671 30.164 61.8551 30.164C61.1725 30.164 60.5538 30.0253 59.9991 29.748C59.4551 29.46 59.0231 29.0387 58.7031 28.484C58.3831 27.9187 58.2231 27.236 58.2231 26.436C58.2231 25.252 58.5751 24.3133 59.2791 23.62C59.9831 22.916 60.9431 22.564 62.1591 22.564C63.6738 22.564 64.7405 23.0493 65.3591 24.02C65.9885 24.9907 66.3031 26.452 66.3031 28.404C66.3031 29.7907 66.1805 30.9267 65.9351 31.812C65.7005 32.6973 65.2898 33.3693 64.7031 33.828C64.1271 34.2867 63.3378 34.516 62.3351 34.516C61.5458 34.516 60.8738 34.3667 60.3191 34.068C59.7645 33.7587 59.3378 33.3587 59.0391 32.868C58.7511 32.3667 58.5858 31.8173 58.5431 31.22H60.6231ZM62.3191 28.34C62.8738 28.34 63.3111 28.1693 63.6311 27.828C63.9511 27.4867 64.1111 27.028 64.1111 26.452C64.1111 25.8227 63.9405 25.3373 63.5991 24.996C63.2685 24.644 62.8151 24.468 62.2391 24.468C61.6631 24.468 61.2045 24.6493 60.8631 25.012C60.5325 25.364 60.3671 25.8333 60.3671 26.42C60.3671 26.9853 60.5271 27.4493 60.8471 27.812C61.1778 28.164 61.6685 28.34 62.3191 28.34ZM68.9748 34.612C68.5694 34.612 68.2334 34.4893 67.9667 34.244C67.7107 33.988 67.5827 33.6733 67.5827 33.3C67.5827 32.9267 67.7107 32.6173 67.9667 32.372C68.2334 32.116 68.5694 31.988 68.9748 31.988C69.3694 31.988 69.6947 32.116 69.9507 32.372C70.2067 32.6173 70.3347 32.9267 70.3347 33.3C70.3347 33.6733 70.2067 33.988 69.9507 34.244C69.6947 34.4893 69.3694 34.612 68.9748 34.612ZM68.9748 27.988C68.5694 27.988 68.2334 27.8653 67.9667 27.62C67.7107 27.364 67.5827 27.0493 67.5827 26.676C67.5827 26.3027 67.7107 25.9933 67.9667 25.748C68.2334 25.492 68.5694 25.364 68.9748 25.364C69.3694 25.364 69.6947 25.492 69.9507 25.748C70.2067 25.9933 70.3347 26.3027 70.3347 26.676C70.3347 27.0493 70.2067 27.364 69.9507 27.62C69.6947 27.8653 69.3694 27.988 68.9748 27.988ZM71.5139 32.228V30.468L76.7459 22.98H79.3539V30.276H80.7619V32.228H79.3539V34.5H77.1139V32.228H71.5139ZM77.2579 25.38L73.9779 30.276H77.2579V25.38ZM81.596 24.9V22.836H85.452V34.5H83.148V24.9H81.596Z" fill="#212121"/>
</svg>
