<svg width="134" height="59" viewBox="0 0 134 59" fill="none" xmlns="http://www.w3.org/2000/svg">
<path d="M32.2994 26C32.2994 25.4477 32.7471 25 33.2994 25H34.2994C34.8517 25 35.2994 25.4477 35.2994 26V34C35.2994 34.5523 34.8517 35 34.2994 35H33.2994C32.7471 35 32.2994 34.5523 32.2994 34V26Z" fill="#212121"/>
<path d="M37.2994 24C37.2994 23.4477 37.7471 23 38.2994 23H39.2994C39.8517 23 40.2994 23.4477 40.2994 24V34C40.2994 34.5523 39.8517 35 39.2994 35H38.2994C37.7471 35 37.2994 34.5523 37.2994 34V24Z" fill="#212121"/>
<path d="M27.2994 29.5C27.2994 28.9477 27.7471 28.5 28.2994 28.5H29.2994C29.8517 28.5 30.2994 28.9477 30.2994 29.5V34C30.2994 34.5523 29.8517 35 29.2994 35H28.2994C27.7471 35 27.2994 34.5523 27.2994 34V29.5Z" fill="#212121"/>
<path d="M22.2994 32C22.2994 31.4477 22.7471 31 23.2994 31H24.2994C24.8517 31 25.2994 31.4477 25.2994 32V34C25.2994 34.5523 24.8517 35 24.2994 35H23.2994C22.7471 35 22.2994 34.5523 22.2994 34V32Z" fill="#212121"/>
<path fill-rule="evenodd" clip-rule="evenodd" d="M56.7999 25.5875C59.2664 25.5876 61.6387 26.5551 63.4263 28.2898C63.5609 28.4237 63.7761 28.4221 63.9086 28.286L65.1954 26.9605C65.2625 26.8915 65.3 26.798 65.2994 26.7008C65.2988 26.6035 65.2604 26.5105 65.1924 26.4423C60.5005 21.8526 53.0985 21.8526 48.4066 26.4423C48.3386 26.5105 48.3 26.6034 48.2994 26.7007C48.2988 26.7979 48.3362 26.8914 48.4032 26.9605L49.6904 28.286C49.8229 28.4223 50.0382 28.424 50.1727 28.2898C51.9606 26.5549 54.3331 25.5875 56.7999 25.5875ZM56.8353 29.5894C58.1905 29.5893 59.4974 30.1035 60.5019 31.032C60.6378 31.1638 60.8518 31.1609 60.9843 31.0255L62.2696 29.7C62.3373 29.6304 62.3748 29.5361 62.3738 29.4381C62.3729 29.3401 62.3334 29.2466 62.2644 29.1784C59.2053 26.2739 54.4679 26.2739 51.4089 29.1784C51.3398 29.2466 51.3003 29.3401 51.2994 29.4382C51.2985 29.5362 51.3362 29.6305 51.404 29.7L52.6889 31.0255C52.8214 31.1609 53.0354 31.1638 53.1713 31.032C54.1752 30.1041 55.481 29.5899 56.8353 29.5894ZM59.449 32.1767C59.4509 32.275 59.4131 32.3698 59.3443 32.4386L57.1211 34.7289C57.0559 34.7962 56.967 34.834 56.8743 34.834C56.7816 34.834 56.6927 34.7962 56.6276 34.7289L54.4039 32.4386C54.3352 32.3697 54.2974 32.2749 54.2995 32.1766C54.3015 32.0783 54.3432 31.9853 54.4147 31.9194C55.8346 30.6935 57.9141 30.6935 59.3339 31.9194C59.4054 31.9853 59.447 32.0784 59.449 32.1767Z" fill="#212121"/>
<path opacity="0.35" d="M73.7994 27C73.7994 25.067 75.3664 23.5 77.2994 23.5H94.2994C96.2324 23.5 97.7994 25.067 97.7994 27V32C97.7994 33.933 96.2324 35.5 94.2994 35.5H77.2994C75.3664 35.5 73.7994 33.933 73.7994 32V27Z" stroke="#212121"/>
<path opacity="0.4" d="M99.2994 28V32.2203C100.148 31.8629 100.701 31.0314 100.701 30.1102C100.701 29.1889 100.148 28.3574 99.2994 28Z" fill="#212121"/>
<path d="M75.2994 27C75.2994 25.8954 76.1948 25 77.2994 25H94.2994C95.404 25 96.2994 25.8954 96.2994 27V32C96.2994 33.1046 95.404 34 94.2994 34H77.2994C76.1948 34 75.2994 33.1046 75.2994 32V27Z" fill="#212121"/>
</svg>
