<svg width="16" height="16" viewBox="0 0 16 16" fill="none" xmlns="http://www.w3.org/2000/svg">
<path d="M4.66666 5.66669L6.628 6.82629C7.77146 7.50235 8.22852 7.50235 9.37199 6.82629L11.3333 5.66669" stroke="#616161" stroke-linecap="round" stroke-linejoin="round"/>
<path d="M1.34385 8.98373C1.38744 11.0274 1.40923 12.0493 2.16331 12.8062C2.9174 13.5632 3.9669 13.5895 6.0659 13.6423C7.35955 13.6748 8.64048 13.6748 9.93415 13.6423C12.0331 13.5895 13.0826 13.5632 13.8367 12.8062C14.5908 12.0493 14.6126 11.0274 14.6561 8.98373C14.6702 8.3266 14.6702 7.67333 14.6561 7.01627C14.6126 4.97255 14.5908 3.95071 13.8367 3.19375C13.0826 2.4368 12.0331 2.41043 9.93415 2.35769C8.64048 2.32519 7.35955 2.32519 6.06589 2.35769C3.9669 2.41042 2.9174 2.43679 2.16331 3.19375C1.40923 3.9507 1.38743 4.97255 1.34385 7.0162C1.32984 7.67333 1.32984 8.3266 1.34385 8.98373Z" stroke="#616161" stroke-linejoin="round"/>
</svg>
