<svg width="16" height="16" viewBox="0 0 16 16" fill="none" xmlns="http://www.w3.org/2000/svg">
<path d="M14.3626 7.36337C14.5653 7.64757 14.6666 7.78971 14.6666 8.00004C14.6666 8.21037 14.5653 8.35251 14.3626 8.63671C13.4519 9.91377 11.1261 12.6667 7.99998 12.6667C4.87383 12.6667 2.54805 9.91377 1.63734 8.63671C1.43465 8.35251 1.33331 8.21037 1.33331 8.00004C1.33331 7.78971 1.43465 7.64757 1.63734 7.36337C2.54805 6.08633 4.87383 3.33337 7.99998 3.33337C11.1261 3.33337 13.4519 6.08633 14.3626 7.36337Z" stroke="#BDBDBD"/>
<path d="M10 8C10 6.8954 9.1046 6 8 6C6.8954 6 6 6.8954 6 8C6 9.1046 6.8954 10 8 10C9.1046 10 10 9.1046 10 8Z" stroke="#BDBDBD"/>
</svg>
