<svg width="16" height="16" viewBox="0 0 16 16" fill="none" xmlns="http://www.w3.org/2000/svg">
<path d="M3.33331 5.99998C3.33331 3.80009 3.33331 2.70015 4.01673 2.01673C4.70015 1.33331 5.80009 1.33331 7.99998 1.33331C10.1998 1.33331 11.2998 1.33331 11.9832 2.01673C12.6666 2.70015 12.6666 3.80009 12.6666 5.99998V9.99998C12.6666 12.1998 12.6666 13.2998 11.9832 13.9832C11.2998 14.6666 10.1998 14.6666 7.99998 14.6666C5.80009 14.6666 4.70015 14.6666 4.01673 13.9832C3.33331 13.2998 3.33331 12.1998 3.33331 9.99998V5.99998Z" stroke="#616161" stroke-linecap="round"/>
<path d="M7.33331 12.6667H8.66665" stroke="#616161" stroke-linecap="round" stroke-linejoin="round"/>
<path d="M6 1.33331L6.05933 1.68933C6.18792 2.46084 6.25221 2.8466 6.51679 3.08134C6.7928 3.32621 7.18407 3.33331 8 3.33331C8.81593 3.33331 9.2072 3.32621 9.4832 3.08134C9.7478 2.8466 9.81207 2.46084 9.94067 1.68933L10 1.33331" stroke="#757575" stroke-linejoin="round"/>
</svg>
